<svg id="Layer_1" height="512" viewBox="0 0 512 512" width="512" xmlns="http://www.w3.org/2000/svg" data-name="Layer 1"><path d="m472 72h-304s-72 1.292-120 112v-72s-11-104 120-104h305" fill="#c6c6c6"/><path d="m8 512v-48.318a66.155 66.155 0 0 1 45.235-62.76l26.765-8.922v-140.166a115.834 115.834 0 0 1 115.834-115.834h104.332a115.834 115.834 0 0 1 115.834 115.834v140.166l56 32-1 88z" fill="#5b223c"/><path d="m360 318.26v-57.1c0-33.777-11.383-61.16-45.162-61.16h-117.676a61.162 61.162 0 0 0 -61.162 61.162v57.1a44.355 44.355 0 0 0 22.349 38.511l33.651 19.227v40a16 16 0 0 0 16 16h80a16 16 0 0 0 16-16v-40l33.651-19.229a44.355 44.355 0 0 0 22.349-38.511z" fill="#db0534"/><path d="m197.162 200a61.162 61.162 0 0 0 -61.162 61.162v57.1a44.355 44.355 0 0 0 22.349 38.511l33.651 19.227v40a16 16 0 0 0 16 16h40v-56c-32-8-40-40-40-40v-136z" fill="#fff" opacity=".2"/><g fill="#421129"><circle cx="200" cy="288" r="24"/><circle cx="296" cy="288" r="24"/><path d="m224 336h16v16h-16z"/><path d="m256 336h16v16h-16z"/><path d="m224 392h16v40h-16z"/><path d="m256 392h16v40h-16z"/></g><path d="m152 48s-88 8-104 136c48-110.708 120-112 120-112h304v-24z" fill="#e0e0e0"/><path d="m472 512v-504h32v504" fill="#b76f11"/><path d="m120 432v-192a183.467 183.467 0 0 1 74.891-103.988 115.829 115.829 0 0 0 -114.891 115.822v140.166l-26.765 8.922a66.155 66.155 0 0 0 -45.235 62.76v48.318h53.2c-2.808-72 58.8-80 58.8-80z" fill="#fff" opacity=".1"/></svg>